{"asset":{"version":"2.0","generator":"VECTARY"},"nodes":[{"translation":[0,0,0],"scale":[0.01,0.01,0.01],"rotation":[0,0,0,1],"name":"NetStream_Booth","children":[1,2,6,7,8,9,10,14,18,28]},{"translation":[-0.0016596317291259746,0.06460734456777671,-1.0970142749822989],"scale":[1,1,1],"rotation":[0,0,0,1],"name":"Basic_Booth_Body","mesh":0},{"translation":[-0.0016596317291259746,0.06460734456777671,-2.224000094982299],"scale":[1,1,1],"rotation":[0,0,0,1],"name":"Kiosk01","children":[3,4,5]},{"translation":[0,0,0],"scale":[1,1,1],"rotation":[0,0,0,1],"name":"Kiok_Screen","mesh":1},{"translation":[0,0,0],"scale":[1,1,1],"rotation":[0,0,0,1],"name":"Logo_Screen","mesh":2},{"translation":[0,0,0],"scale":[1,1,1],"rotation":[0,0,0,1],"name":"Kiosk01","mesh":3},{"translation":[-0.0016596317291259766,0.0021518045677767213,0.004999905017701167],"scale":[1,1,1],"rotation":[0,0,0,1],"name":"Grass","mesh":4},{"translation":[-0.0016596317291259766,0.0021518045677767213,-0.05228161191086888],"scale":[1,1,1],"rotation":[0,0,0,1],"name":"Main_Screen","mesh":5},{"translation":[-0.0016596317291259766,0.0021518045677767213,0.004999905017701167],"scale":[1,1,1],"rotation":[0,0,0,1],"name":"Point_Color","mesh":6},{"translation":[-0.0016596317291259766,0.002151804567776732,-0.03],"scale":[1,1,1],"rotation":[0,0,0,1],"name":"Sub_Screen","mesh":7},{"translation":[-2.151659631729126,0.06460745866777672,0.004999905017701167],"scale":[1.0000000532124818,1,1.0000000532124818],"rotation":[0,0.707106799999999,0,0.7071067623730954],"name":"Kiosk01","children":[11,12,13]},{"translation":[0,0,0],"scale":[1,1,1],"rotation":[0,0,0,1],"name":"Kiok_Screen","mesh":8},{"translation":[0,0,0],"scale":[1,1,1],"rotation":[0,0,0,1],"name":"Logo_Screen","mesh":9},{"translation":[0,0,0],"scale":[1,1,1],"rotation":[0,0,0,1],"name":"Kiosk01","mesh":10},{"translation":[2.148339988270874,0.06460745866777672,0.004999905017701167],"scale":[1.0000000532124818,1,1.0000000532124818],"rotation":[0,-0.707106799999999,0,0.7071067623730954],"name":"Kiosk01","children":[15,16,17]},{"translation":[0,0,0],"scale":[1,1,1],"rotation":[0,0,0,1],"name":"Kiok_Screen","mesh":11},{"translation":[0,0,0],"scale":[1,1,1],"rotation":[0,0,0,1],"name":"Logo_Screen","mesh":12},{"translation":[0,0,0],"scale":[1,1,1],"rotation":[0,0,0,1],"name":"Kiosk01","mesh":13},{"translation":[16.239340368270874,0.0021518045677767213,-13.685000094982298],"scale":[1,1,1],"rotation":[0,0,0,1],"name":"NetStream Logo","children":[19,20,21,22,23,24,25,26,27]},{"translation":[0,0,0],"scale":[1,1,1],"rotation":[0,0,0,1],"name":"N","mesh":14},{"translation":[0,0,0],"scale":[1,1,1],"rotation":[0,0,0,1],"name":"E","mesh":15},{"translation":[0,0,0],"scale":[1,1,1],"rotation":[0,0,0,1],"name":"T","mesh":16},{"translation":[0,0,0],"scale":[1,1,1],"rotation":[0,0,0,1],"name":"S","mesh":17},{"translation":[0,0,0],"scale":[1,1,1],"rotation":[0,0,0,1],"name":"T","mesh":18},{"translation":[0,0,0],"scale":[1,1,1],"rotation":[0,0,0,1],"name":"R","mesh":19},{"translation":[0,0,0],"scale":[1,1,1],"rotation":[0,0,0,1],"name":"E","mesh":20},{"translation":[0,0,0],"scale":[1,1,1],"rotation":[0,0,0,1],"name":"A","mesh":21},{"translation":[0,0,0],"scale":[1,1,1],"rotation":[0,0,0,1],"name":"M","mesh":22},{"translation":[13.668340368270874,-2.753848195432223,-12.973000094982298],"scale":[1,1,1],"rotation":[0,0,0,1],"name":"NetStream Logo (1)","children":[29,30,31,32,33,34,35,36,37]},{"translation":[0,0,0],"scale":[1,1,1],"rotation":[0,0,0,1],"name":"N","mesh":23},{"translation":[0,0,0],"scale":[1,1,1],"rotation":[0,0,0,1],"name":"E","mesh":24},{"translation":[0,0,0],"scale":[1,1,1],"rotation":[0,0,0,1],"name":"T","mesh":25},{"translation":[0,0,0],"scale":[1,1,1],"rotation":[0,0,0,1],"name":"S","mesh":26},{"translation":[0,0,0],"scale":[1,1,1],"rotation":[0,0,0,1],"name":"T","mesh":27},{"translation":[0,0,0],"scale":[1,1,1],"rotation":[0,0,0,1],"name":"R","mesh":28},{"translation":[0,0,0],"scale":[1,1,1],"rotation":[0,0,0,1],"name":"E","mesh":29},{"translation":[0,0,0],"scale":[1,1,1],"rotation":[0,0,0,1],"name":"A","mesh":30},{"translation":[0,0,0],"scale":[1,1,1],"rotation":[0,0,0,1],"name":"M","mesh":31}],"materials":[{"pbrMetallicRoughness":{"baseColorFactor":[1,1,1,1],"baseColorTexture":{"index":0,"extensions":{"KHR_texture_transform":{"offset":[0,0],"scale":[1,1],"rotation":0}},"texCoord":0},"metallicRoughnessTexture":{"index":1,"extensions":{"KHR_texture_transform":{"offset":[0,0],"scale":[1,1],"rotation":0}},"texCoord":0},"metallicFactor":0.99,"roughnessFactor":1},"name":"M_Booth","emissiveTexture":{"index":2,"extensions":{"KHR_texture_transform":{"offset":[0,0],"scale":[1,1],"rotation":0}},"texCoord":0},"emissiveFactor":[766.9961,766.9961,766.9961],"alphaMode":"OPAQUE","doubleSided":false},{"pbrMetallicRoughness":{"baseColorFactor":[1,1,1,1],"baseColorTexture":{"index":3,"extensions":{"KHR_texture_transform":{"offset":[0,0],"scale":[1,1],"rotation":0}},"texCoord":0},"metallicFactor":0,"roughnessFactor":0.5},"name":"M_kio2","emissiveFactor":[0,0,0],"alphaMode":"OPAQUE","doubleSided":false},{"pbrMetallicRoughness":{"baseColorFactor":[0.8000000000000002,0.8000000000000002,0.8000000000000002,1],"metallicFactor":0,"roughnessFactor":1},"name":"Logo_Screen","emissiveFactor":[0,0,0],"alphaMode":"OPAQUE","doubleSided":false},{"pbrMetallicRoughness":{"baseColorFactor":[1,1,1,1],"baseColorTexture":{"index":4,"extensions":{"KHR_texture_transform":{"offset":[0,0],"scale":[1,1],"rotation":0}},"texCoord":0},"metallicFactor":0,"roughnessFactor":0.5},"name":"M_Grass","normalTexture":{"index":5,"scale":1,"extensions":{"KHR_texture_transform":{"offset":[0,0],"scale":[1,1],"rotation":0}},"texCoord":0},"emissiveFactor":[0,0,0],"alphaMode":"OPAQUE","doubleSided":false},{"pbrMetallicRoughness":{"baseColorFactor":[1,1,1,1],"baseColorTexture":{"index":6,"extensions":{"KHR_texture_transform":{"offset":[0,0],"scale":[1,1],"rotation":0}},"texCoord":0},"metallicFactor":0,"roughnessFactor":0.5},"name":"M_VR","emissiveFactor":[0,0,0],"alphaMode":"OPAQUE","doubleSided":false},{"pbrMetallicRoughness":{"baseColorFactor":[1,1,1,1],"baseColorTexture":{"index":7,"extensions":{"KHR_texture_transform":{"offset":[0,0],"scale":[1,1],"rotation":0}},"texCoord":0},"metallicRoughnessTexture":{"index":9,"extensions":{"KHR_texture_transform":{"offset":[0,0],"scale":[1,1],"rotation":0}},"texCoord":0},"metallicFactor":0.99,"roughnessFactor":1},"name":"M_Booth_Point","normalTexture":{"index":8,"scale":1,"extensions":{"KHR_texture_transform":{"offset":[0,0],"scale":[1,1],"rotation":0}},"texCoord":0},"emissiveFactor":[0,0,0],"alphaMode":"OPAQUE","doubleSided":false},{"pbrMetallicRoughness":{"baseColorFactor":[1,1,1,1],"baseColorTexture":{"index":10,"extensions":{"KHR_texture_transform":{"offset":[0,0],"scale":[1,1],"rotation":0}},"texCoord":0},"metallicFactor":0,"roughnessFactor":0.5},"name":"M_Logo","emissiveFactor":[0,0,0],"alphaMode":"OPAQUE","doubleSided":false},{"pbrMetallicRoughness":{"baseColorFactor":[1,1,1,1],"baseColorTexture":{"index":11,"extensions":{"KHR_texture_transform":{"offset":[0,0],"scale":[1,1],"rotation":0}},"texCoord":0},"metallicFactor":0,"roughnessFactor":0.5},"name":"M_kio1","emissiveFactor":[0,0,0],"alphaMode":"OPAQUE","doubleSided":false},{"pbrMetallicRoughness":{"baseColorFactor":[1,1,1,1],"baseColorTexture":{"index":12,"extensions":{"KHR_texture_transform":{"offset":[0,0],"scale":[1,1],"rotation":0}},"texCoord":0},"metallicFactor":0,"roughnessFactor":0.5},"name":"M_kio3","emissiveFactor":[0,0,0],"alphaMode":"OPAQUE","doubleSided":false},{"pbrMetallicRoughness":{"baseColorFactor":[0.6120655998656237,0.6120655998656237,0.6120655998656237,1],"metallicFactor":0,"roughnessFactor":0.5},"name":"Logo_White","emissiveFactor":[0,0,0],"alphaMode":"OPAQUE","doubleSided":false},{"pbrMetallicRoughness":{"baseColorFactor":[0,0.6584980999999999,0.7547169999999999,1],"metallicFactor":1,"roughnessFactor":0.5},"name":"Logo_Skyblue","emissiveFactor":[0,0,0],"alphaMode":"OPAQUE","doubleSided":false}],"textures":[{"sampler":0,"source":0},{"sampler":0,"source":1},{"sampler":0,"source":2},{"sampler":0,"source":3},{"sampler":0,"source":4},{"sampler":0,"source":5},{"sampler":0,"source":6},{"sampler":0,"source":7},{"sampler":0,"source":8},{"sampler":0,"source":9},{"sampler":0,"source":10},{"sampler":0,"source":11},{"sampler":0,"source":12}],"images":[{"uri":"Basic_Booth_Booth_Body_AlbedoTransparency.jpg","mimeType":"image/jpeg"},{"uri":"Basic_Booth_Booth_Body_MetallicSmoothness.png","mimeType":"image/png"},{"uri":"Basic_Booth_Booth_Body_Emission.jpg","mimeType":"image/jpeg"},{"uri":"ex05.jpg","mimeType":"image/jpeg"},{"uri":"Basic_Booth_Grass_AlbedoTransparency.jpg","mimeType":"image/jpeg"},{"uri":"Basic_Booth_Grass_Normal.png","mimeType":"image/png"},{"uri":"픽트02.jpg","mimeType":"image/jpeg"},{"uri":"Basic_Booth_M_point_AlbedoTransparency.jpg","mimeType":"image/jpeg"},{"uri":"Basic_Booth_M_point_Normal.png","mimeType":"image/png"},{"uri":"Basic_Booth_M_point_MetallicSmoothness.png","mimeType":"image/png"},{"uri":"logo.jpg","mimeType":"image/jpeg"},{"uri":"ex03.jpg","mimeType":"image/jpeg"},{"uri":"ex06.jpg","mimeType":"image/jpeg"}],"samplers":[{"wrapS":10497,"wrapT":10497}],"meshes":[{"primitives":[{"mode":4,"attributes":{"POSITION":1,"NORMAL":2,"TEXCOORD_0":3},"material":0,"indices":0}]},{"primitives":[{"mode":4,"attributes":{"POSITION":5,"NORMAL":6,"TEXCOORD_0":7},"material":1,"indices":4}]},{"primitives":[{"mode":4,"attributes":{"POSITION":9,"NORMAL":10,"TEXCOORD_0":11},"material":2,"indices":8}]},{"primitives":[{"mode":4,"attributes":{"POSITION":13,"NORMAL":14,"TEXCOORD_0":15},"material":0,"indices":12}]},{"primitives":[{"mode":4,"attributes":{"POSITION":17,"NORMAL":18,"TEXCOORD_0":19},"material":3,"indices":16}]},{"primitives":[{"mode":4,"attributes":{"POSITION":21,"NORMAL":22,"TEXCOORD_0":23},"material":4,"indices":20}]},{"primitives":[{"mode":4,"attributes":{"POSITION":25,"NORMAL":26,"TEXCOORD_0":27},"material":5,"indices":24}]},{"primitives":[{"mode":4,"attributes":{"POSITION":29,"NORMAL":30,"TEXCOORD_0":31},"material":6,"indices":28}]},{"primitives":[{"mode":4,"attributes":{"POSITION":5,"NORMAL":6,"TEXCOORD_0":7},"material":7,"indices":4}]},{"primitives":[{"mode":4,"attributes":{"POSITION":9,"NORMAL":10,"TEXCOORD_0":11},"material":6,"indices":8}]},{"primitives":[{"mode":4,"attributes":{"POSITION":13,"NORMAL":14,"TEXCOORD_0":15},"material":0,"indices":12}]},{"primitives":[{"mode":4,"attributes":{"POSITION":5,"NORMAL":6,"TEXCOORD_0":7},"material":8,"indices":4}]},{"primitives":[{"mode":4,"attributes":{"POSITION":9,"NORMAL":10,"TEXCOORD_0":11},"material":6,"indices":8}]},{"primitives":[{"mode":4,"attributes":{"POSITION":13,"NORMAL":14,"TEXCOORD_0":15},"material":0,"indices":12}]},{"primitives":[{"mode":4,"attributes":{"POSITION":33,"NORMAL":34},"material":9,"indices":32}]},{"primitives":[{"mode":4,"attributes":{"POSITION":36,"NORMAL":37},"material":9,"indices":35}]},{"primitives":[{"mode":4,"attributes":{"POSITION":39,"NORMAL":40},"material":9,"indices":38}]},{"primitives":[{"mode":4,"attributes":{"POSITION":42,"NORMAL":43},"material":10,"indices":41}]},{"primitives":[{"mode":4,"attributes":{"POSITION":45,"NORMAL":46},"material":9,"indices":44}]},{"primitives":[{"mode":4,"attributes":{"POSITION":48,"NORMAL":49},"material":9,"indices":47}]},{"primitives":[{"mode":4,"attributes":{"POSITION":51,"NORMAL":52},"material":9,"indices":50}]},{"primitives":[{"mode":4,"attributes":{"POSITION":54,"NORMAL":55},"material":9,"indices":53}]},{"primitives":[{"mode":4,"attributes":{"POSITION":57,"NORMAL":58},"material":9,"indices":56}]},{"primitives":[{"mode":4,"attributes":{"POSITION":33,"NORMAL":34},"material":9,"indices":32}]},{"primitives":[{"mode":4,"attributes":{"POSITION":36,"NORMAL":37},"material":9,"indices":35}]},{"primitives":[{"mode":4,"attributes":{"POSITION":39,"NORMAL":40},"material":9,"indices":38}]},{"primitives":[{"mode":4,"attributes":{"POSITION":42,"NORMAL":43},"material":10,"indices":41}]},{"primitives":[{"mode":4,"attributes":{"POSITION":45,"NORMAL":46},"material":9,"indices":44}]},{"primitives":[{"mode":4,"attributes":{"POSITION":48,"NORMAL":49},"material":9,"indices":47}]},{"primitives":[{"mode":4,"attributes":{"POSITION":51,"NORMAL":52},"material":9,"indices":50}]},{"primitives":[{"mode":4,"attributes":{"POSITION":54,"NORMAL":55},"material":9,"indices":53}]},{"primitives":[{"mode":4,"attributes":{"POSITION":57,"NORMAL":58},"material":9,"indices":56}]}],"accessors":[{"bufferView":0,"byteOffset":0,"componentType":5125,"count":153495,"type":"SCALAR"},{"bufferView":1,"byteOffset":0,"componentType":5126,"count":39833,"max":[4.503319263458252,4.9999542236328125,5.602014064788818],"min":[-4.5,-0.06460734456777573,-3.3979856967926025],"type":"VEC3"},{"bufferView":2,"byteOffset":0,"componentType":5126,"count":39833,"type":"VEC3"},{"bufferView":3,"byteOffset":0,"componentType":5126,"count":39833,"type":"VEC2"},{"bufferView":4,"byteOffset":0,"componentType":5125,"count":12,"type":"SCALAR"},{"bufferView":5,"byteOffset":0,"componentType":5126,"count":8,"max":[0.3715829849243164,1.4952741861343384,0.04390057548880577],"min":[-0.3715829849243164,1.0439852476119995,-0.04390057548880577],"type":"VEC3"},{"bufferView":6,"byteOffset":0,"componentType":5126,"count":8,"type":"VEC3"},{"bufferView":7,"byteOffset":0,"componentType":5126,"count":8,"type":"VEC2"},{"bufferView":8,"byteOffset":0,"componentType":5125,"count":6,"type":"SCALAR"},{"bufferView":9,"byteOffset":0,"componentType":5126,"count":4,"max":[0.16385293006896973,2.065805435180664,0.05164000019431114],"min":[-0.16414706408977509,1.7378054857254028,0.05164000019431114],"type":"VEC3"},{"bufferView":10,"byteOffset":0,"componentType":5126,"count":4,"type":"VEC3"},{"bufferView":11,"byteOffset":0,"componentType":5126,"count":4,"type":"VEC2"},{"bufferView":12,"byteOffset":0,"componentType":5125,"count":552,"type":"SCALAR"},{"bufferView":13,"byteOffset":0,"componentType":5126,"count":325,"max":[0.4474015235900879,2.135019540786743,0.061562370508909225],"min":[-0.4474015235900879,0.059751443564891815,-0.061562370508909225],"type":"VEC3"},{"bufferView":14,"byteOffset":0,"componentType":5126,"count":325,"type":"VEC3"},{"bufferView":15,"byteOffset":0,"componentType":5126,"count":325,"type":"VEC2"},{"bufferView":16,"byteOffset":0,"componentType":5125,"count":6,"type":"SCALAR"},{"bufferView":17,"byteOffset":0,"componentType":5126,"count":4,"max":[2.003319501876831,0.11787904798984528,2],"min":[-1.9966803789138794,0.11787904798984528,-2],"type":"VEC3"},{"bufferView":18,"byteOffset":0,"componentType":5126,"count":4,"type":"VEC3"},{"bufferView":19,"byteOffset":0,"componentType":5126,"count":4,"type":"VEC2"},{"bufferView":20,"byteOffset":0,"componentType":5125,"count":6,"type":"SCALAR"},{"bufferView":21,"byteOffset":0,"componentType":5126,"count":4,"max":[1.45512056350708,2.524310350418091,2.5223755836486816],"min":[-1.3271301984786987,1.0015168190002441,2.522373676300049],"type":"VEC3"},{"bufferView":22,"byteOffset":0,"componentType":5126,"count":4,"type":"VEC3"},{"bufferView":23,"byteOffset":0,"componentType":5126,"count":4,"type":"VEC2"},{"bufferView":24,"byteOffset":0,"componentType":5125,"count":11244,"type":"SCALAR"},{"bufferView":25,"byteOffset":0,"componentType":5126,"count":3238,"max":[4.254719257354736,4.449377059936523,4.449999809265137],"min":[-4.2859272956848145,0.0622921921312809,-4.278491973876953],"type":"VEC3"},{"bufferView":26,"byteOffset":0,"componentType":5126,"count":3238,"type":"VEC3"},{"bufferView":27,"byteOffset":0,"componentType":5126,"count":3238,"type":"VEC2"},{"bufferView":28,"byteOffset":0,"componentType":5125,"count":60,"type":"SCALAR"},{"bufferView":29,"byteOffset":0,"componentType":5126,"count":24,"max":[4.439107894897461,2.967240810394287,-1.7690097093582153],"min":[-2.934077024459839,2.2795050144195557,-4.267947196960449],"type":"VEC3"},{"bufferView":30,"byteOffset":0,"componentType":5126,"count":24,"type":"VEC3"},{"bufferView":31,"byteOffset":0,"componentType":5126,"count":24,"type":"VEC2"},{"bufferView":32,"byteOffset":0,"componentType":5125,"count":330,"type":"SCALAR"},{"bufferView":33,"byteOffset":0,"componentType":5126,"count":134,"max":[-12.407421112060547,4.400195121765137,9.200000762939453],"min":[-12.590075492858887,4.182333469390869,9.180000305175781],"type":"VEC3"},{"bufferView":34,"byteOffset":0,"componentType":5126,"count":134,"type":"VEC3"},{"bufferView":35,"byteOffset":0,"componentType":5125,"count":276,"type":"SCALAR"},{"bufferView":36,"byteOffset":0,"componentType":5126,"count":120,"max":[-12.705082893371582,4.399868011474609,9.200000762939453],"min":[-12.846067428588867,4.182404518127441,9.180000305175781],"type":"VEC3"},{"bufferView":37,"byteOffset":0,"componentType":5126,"count":120,"type":"VEC3"},{"bufferView":38,"byteOffset":0,"componentType":5125,"count":228,"type":"SCALAR"},{"bufferView":39,"byteOffset":0,"componentType":5126,"count":96,"max":[-12.918800354003906,4.400297164916992,9.200000762939453],"min":[-13.091605186462402,4.182488441467285,9.180000305175781],"type":"VEC3"},{"bufferView":40,"byteOffset":0,"componentType":5126,"count":96,"type":"VEC3"},{"bufferView":41,"byteOffset":0,"componentType":5125,"count":804,"type":"SCALAR"},{"bufferView":42,"byteOffset":0,"componentType":5126,"count":262,"max":[-13.092218399047852,4.536163806915283,9.200000762939453],"min":[-13.493199348449707,4.011459827423096,9.180000305175781],"type":"VEC3"},{"bufferView":43,"byteOffset":0,"componentType":5126,"count":262,"type":"VEC3"},{"bufferView":44,"byteOffset":0,"componentType":5125,"count":228,"type":"SCALAR"},{"bufferView":45,"byteOffset":0,"componentType":5126,"count":96,"max":[-13.53695297241211,4.400053024291992,9.200000762939453],"min":[-13.709371566772461,4.182939529418945,9.180000305175781],"type":"VEC3"},{"bufferView":46,"byteOffset":0,"componentType":5126,"count":96,"type":"VEC3"},{"bufferView":47,"byteOffset":0,"componentType":5125,"count":864,"type":"SCALAR"},{"bufferView":48,"byteOffset":0,"componentType":5126,"count":278,"max":[-13.793334007263184,4.401304721832275,9.200000762939453],"min":[-13.970870971679688,4.180748462677002,9.180000305175781],"type":"VEC3"},{"bufferView":49,"byteOffset":0,"componentType":5126,"count":278,"type":"VEC3"},{"bufferView":50,"byteOffset":0,"componentType":5125,"count":270,"type":"SCALAR"},{"bufferView":51,"byteOffset":0,"componentType":5126,"count":118,"max":[-14.06403636932373,4.400354385375977,9.200000762939453],"min":[-14.203434944152832,4.182754039764404,9.180000305175781],"type":"VEC3"},{"bufferView":52,"byteOffset":0,"componentType":5126,"count":118,"type":"VEC3"},{"bufferView":53,"byteOffset":0,"componentType":5125,"count":624,"type":"SCALAR"},{"bufferView":54,"byteOffset":0,"componentType":5126,"count":224,"max":[-14.262548446655273,4.400672435760498,9.200000762939453],"min":[-14.489108085632324,4.180209159851074,9.180000305175781],"type":"VEC3"},{"bufferView":55,"byteOffset":0,"componentType":5126,"count":224,"type":"VEC3"},{"bufferView":56,"byteOffset":0,"componentType":5125,"count":816,"type":"SCALAR"},{"bufferView":57,"byteOffset":0,"componentType":5126,"count":280,"max":[-14.569554328918457,4.40205717086792,9.200000762939453],"min":[-14.7878999710083,4.182382583618164,9.180000305175781],"type":"VEC3"},{"bufferView":58,"byteOffset":0,"componentType":5126,"count":280,"type":"VEC3"}],"bufferViews":[{"buffer":0,"byteOffset":0,"byteLength":613980,"target":34963},{"buffer":0,"byteOffset":613980,"byteLength":477996,"target":34962},{"buffer":0,"byteOffset":1091976,"byteLength":477996,"target":34962},{"buffer":0,"byteOffset":1569972,"byteLength":318664,"target":34962},{"buffer":0,"byteOffset":1888636,"byteLength":48,"target":34963},{"buffer":0,"byteOffset":1888684,"byteLength":96,"target":34962},{"buffer":0,"byteOffset":1888780,"byteLength":96,"target":34962},{"buffer":0,"byteOffset":1888876,"byteLength":64,"target":34962},{"buffer":0,"byteOffset":1888940,"byteLength":24,"target":34963},{"buffer":0,"byteOffset":1888964,"byteLength":48,"target":34962},{"buffer":0,"byteOffset":1889012,"byteLength":48,"target":34962},{"buffer":0,"byteOffset":1889060,"byteLength":32,"target":34962},{"buffer":0,"byteOffset":1889092,"byteLength":2208,"target":34963},{"buffer":0,"byteOffset":1891300,"byteLength":3900,"target":34962},{"buffer":0,"byteOffset":1895200,"byteLength":3900,"target":34962},{"buffer":0,"byteOffset":1899100,"byteLength":2600,"target":34962},{"buffer":0,"byteOffset":1901700,"byteLength":24,"target":34963},{"buffer":0,"byteOffset":1901724,"byteLength":48,"target":34962},{"buffer":0,"byteOffset":1901772,"byteLength":48,"target":34962},{"buffer":0,"byteOffset":1901820,"byteLength":32,"target":34962},{"buffer":0,"byteOffset":1901852,"byteLength":24,"target":34963},{"buffer":0,"byteOffset":1901876,"byteLength":48,"target":34962},{"buffer":0,"byteOffset":1901924,"byteLength":48,"target":34962},{"buffer":0,"byteOffset":1901972,"byteLength":32,"target":34962},{"buffer":0,"byteOffset":1902004,"byteLength":44976,"target":34963},{"buffer":0,"byteOffset":1946980,"byteLength":38856,"target":34962},{"buffer":0,"byteOffset":1985836,"byteLength":38856,"target":34962},{"buffer":0,"byteOffset":2024692,"byteLength":25904,"target":34962},{"buffer":0,"byteOffset":2050596,"byteLength":240,"target":34963},{"buffer":0,"byteOffset":2050836,"byteLength":288,"target":34962},{"buffer":0,"byteOffset":2051124,"byteLength":288,"target":34962},{"buffer":0,"byteOffset":2051412,"byteLength":192,"target":34962},{"buffer":0,"byteOffset":2051604,"byteLength":1320,"target":34963},{"buffer":0,"byteOffset":2052924,"byteLength":1608,"target":34962},{"buffer":0,"byteOffset":2054532,"byteLength":1608,"target":34962},{"buffer":0,"byteOffset":2056140,"byteLength":1104,"target":34963},{"buffer":0,"byteOffset":2057244,"byteLength":1440,"target":34962},{"buffer":0,"byteOffset":2058684,"byteLength":1440,"target":34962},{"buffer":0,"byteOffset":2060124,"byteLength":912,"target":34963},{"buffer":0,"byteOffset":2061036,"byteLength":1152,"target":34962},{"buffer":0,"byteOffset":2062188,"byteLength":1152,"target":34962},{"buffer":0,"byteOffset":2063340,"byteLength":3216,"target":34963},{"buffer":0,"byteOffset":2066556,"byteLength":3144,"target":34962},{"buffer":0,"byteOffset":2069700,"byteLength":3144,"target":34962},{"buffer":0,"byteOffset":2072844,"byteLength":912,"target":34963},{"buffer":0,"byteOffset":2073756,"byteLength":1152,"target":34962},{"buffer":0,"byteOffset":2074908,"byteLength":1152,"target":34962},{"buffer":0,"byteOffset":2076060,"byteLength":3456,"target":34963},{"buffer":0,"byteOffset":2079516,"byteLength":3336,"target":34962},{"buffer":0,"byteOffset":2082852,"byteLength":3336,"target":34962},{"buffer":0,"byteOffset":2086188,"byteLength":1080,"target":34963},{"buffer":0,"byteOffset":2087268,"byteLength":1416,"target":34962},{"buffer":0,"byteOffset":2088684,"byteLength":1416,"target":34962},{"buffer":0,"byteOffset":2090100,"byteLength":2496,"target":34963},{"buffer":0,"byteOffset":2092596,"byteLength":2688,"target":34962},{"buffer":0,"byteOffset":2095284,"byteLength":2688,"target":34962},{"buffer":0,"byteOffset":2097972,"byteLength":3264,"target":34963},{"buffer":0,"byteOffset":2101236,"byteLength":3360,"target":34962},{"buffer":0,"byteOffset":2104596,"byteLength":3360,"target":34962}],"scene":0,"scenes":[{"nodes":[0],"name":"Booth"}],"extensionsUsed":["KHR_texture_transform"],"buffers":[{"byteLength":2107956,"uri":"Booth.bin"}]}