{"asset":{"version":"2.0","generator":"VECTARY"},"nodes":[{"translation":[0,0,0],"scale":[1,1,1],"rotation":[-0.7071067811865475,0,0,0.7071067811865476],"name":"RootNode (gltf orientation matrix)","children":[1]},{"translation":[0,0,0],"scale":[1,1,1],"rotation":[0,0,0,1],"name":"RootNode (model correction matrix)","children":[2]},{"translation":[0,0,0],"scale":[1,1,1],"rotation":[0.7071067811865475,0,0,0.7071067811865476],"name":"VR Art Gallery 2020 L _ Baked + Max Scene.fbx","children":[3]},{"translation":[0,0,0],"scale":[1,1,1],"rotation":[0,0,0,1],"name":"RootNode","children":[4]},{"translation":[0,0,0],"scale":[1,1,1],"rotation":[-0.7071067811865475,0,0,0.7071067811865476],"name":"floor","children":[5]},{"translation":[0,0,0],"scale":[1,1,1],"rotation":[0,0,0,1],"name":"floor_floor_0","mesh":0},{"translation":[-0.040704038180160475,0.03674901404078576,-0.007733375500465231],"scale":[1,1,1],"rotation":[-0.22059933164601064,-0.6551333091478746,-0.20892953161506905,0.6917259088261742],"name":"Camera","camera":0}],"materials":[{"pbrMetallicRoughness":{"baseColorFactor":[1,1,1,1],"metallicFactor":0.0685919535,"roughnessFactor":0.348279919},"name":"floor","emissiveFactor":[0,0,0],"alphaMode":"OPAQUE","doubleSided":false}],"meshes":[{"primitives":[{"mode":4,"attributes":{"POSITION":1,"NORMAL":2},"material":0,"indices":0}]}],"accessors":[{"bufferView":0,"byteOffset":0,"componentType":5125,"count":531,"type":"SCALAR"},{"bufferView":1,"byteOffset":0,"componentType":5126,"count":128,"max":[24.999998092651367,25.000003814697266,0],"min":[-25.000001907348633,-24.999996185302734,0],"type":"VEC3"},{"bufferView":2,"byteOffset":0,"componentType":5126,"count":128,"type":"VEC3"}],"bufferViews":[{"buffer":0,"byteOffset":0,"byteLength":2124,"target":34963},{"buffer":0,"byteOffset":2124,"byteLength":1536,"target":34962},{"buffer":0,"byteOffset":3660,"byteLength":1536,"target":34962}],"cameras":[{"name":"Camera","type":"perspective","extras":{"targetDistance":0.04839771225466828},"perspective":{"aspectRatio":1.6736672051696284,"yfov":0.6108652381980153,"zfar":21.801293194996894,"znear":0.0011848695647496811}}],"scene":0,"scenes":[{"nodes":[0,6],"name":"Gallery_navmesh"}],"extensionsUsed":["KHR_texture_transform"],"buffers":[{"byteLength":5196,"uri":"Gallery_navmesh.bin"}]}